<svg id="Layer_1" data-name="Layer 1" xmlns="http://www.w3.org/2000/svg" viewBox="0 0 1000 1000"><defs><style>.cls-1{fill:#202124;}</style></defs><path class="cls-1" d="M567.17,583l.8-97.59a68,68,0,0,0-135.94,0l-3,348.73a72.24,72.24,0,0,0,18.33,48.18C473.06,911.51,500,968.12,500,968.12s24.29-56.4,47.65-84.32a72.09,72.09,0,0,0,17.25-45.66l1.88-206.39H463.4V583ZM498.92,828c0,8,13.28,25.69,27.15,27.15-13.87,0-27.15,23.08-27.15,31,0-7.94-13.28-31-27.15-31C485.64,855.18,498.92,836,498.92,828Z"/><path class="cls-1" d="M379.75,631.75V861.21c-15-15.06-28.66-34.75-39.08-60.4-36.77-90.63-48.34-125.49-143.92-139.43V631.75Z"/><path class="cls-1" d="M803.25,393V583H623.74V316.3h-244V583h-183V393C292.33,379,303.9,344.19,340.67,253.56c40.19-99.13,128.62-109,159.33-108.82,30.67-.21,119.1,9.69,159.33,108.82C696.07,344.19,707.67,379,803.25,393Z"/><path class="cls-1" d="M623.74,631.75H803.25v29.63c-95.58,13.94-107.18,48.8-143.92,139.43-9.59,23.63-21.93,42.21-35.59,56.78Z"/><path class="cls-1" d="M626.13,63.06V183.23c-43.9-48.84-102.35-54.74-126.13-54.58-22.81-.16-77.61,5.26-120.76,48.84V63.06Z"/><polygon class="cls-1" points="502.68 31.88 237 82.87 502.78 126.86 763 82.87 502.68 31.88"/><path class="cls-1" d="M679.8,85.56s5.37,16.65,0,29.79-10.73,29.25-10.73,29.25l13.12,4.22s3-41.8,3-47.16S679.8,85.56,679.8,85.56Z"/></svg>